#!OML:ASF F:\VICON\USERDATA\INSTALL\rory3\rory3.ASF
:FULLY-SPECIFIED
:DEGREES
204
root -0.248082 18.2018 13.9492 -4.70293 -0.377771 -4.87403
lowerback 10.7703 -0.563164 3.06283
upperback -0.199134 -0.178806 2.8715
thorax -6.26503 -0.137439 1.32008
lowerneck -17.729 -3.2773 -1.62213
upperneck 21.5939 -4.45663 1.32397
head 9.85357 -2.04508 0.125532
rclavicle 1.83348e-014 1.43125e-014
rhumerus -31.275 -28.778 -73.7739
rradius 18.8624
rwrist 12.1535
rhand -15.0733 21.432
rfingers 7.12502
rthumb 11.094 -8.25481
lclavicle 1.83348e-014 1.43125e-014
lhumerus -29.4983 4.63533 83.4977
lradius 27.1431
lwrist 3.01993
lhand -26.3275 29.8082
lfingers 7.12502
lthumb 0.229425 59.7878
rfemur -9.98136 6.54239 30.5194
rtibia 27.1748
rfoot -9.81939 -3.58108
rtoes 8.81036
lfemur -12.984 4.31108 -15.0424
ltibia 70.1287
lfoot 5.49523 -8.91649
ltoes -6.65184
205
root -0.243982 18.1983 14.1126 -4.80959 -0.600391 -4.63006
lowerback 10.8174 -0.421753 2.91307
upperback -0.0659251 -0.0191846 2.7705
thorax -6.14991 -0.0548842 1.27092
lowerneck -17.7984 -3.30786 -1.68211
upperneck 21.658 -4.48599 1.33901
head 9.89171 -2.06057 0.134946
rclavicle 6.80216e-015 1.23246e-014
rhumerus -30.5447 -27.031 -74.9694
rradius 19.5649
rwrist 10.3792
rhand -15.1574 21.1129
rfingers 7.12502
rthumb 11.013 -8.57821
lclavicle 6.80216e-015 1.23246e-014
lhumerus -29.7737 4.70976 83.5371
lradius 27.265
lwrist 3.12085
lhand -26.6587 27.9563
lfingers 7.12502
lthumb -0.090418 57.936
rfemur -9.23859 6.5846 30.3473
rtibia 27.1795
rfoot -10.4729 -3.57652
rtoes 8.024
lfemur -13.9156 4.65142 -15.4063
ltibia 70.2925
lfoot 3.65432 -7.93491
ltoes -7.11025
206
root -0.242103 18.1931 14.2617 -4.78101 -0.926904 -4.86963
lowerback 10.9938 -0.254389 3.22187
upperback -0.0329286 0.252278 2.79816
thorax -6.21401 0.0688855 1.08386
lowerneck -17.9826 -3.38763 -1.65265
upperneck 21.8136 -4.58844 1.26548
head 9.98045 -2.11115 0.0857594
rclavicle 8.12066e-015 -8.74653e-015
rhumerus -29.9114 -25.7106 -75.8228
rradius 20.2064
rwrist 9.27753
rhand -15.6033 19.9127
rfingers 7.12502
rthumb 10.5829 -9.8008
lclavicle 8.12066e-015 -8.74653e-015
lhumerus -30.031 4.63128 83.6086
lradius 27.3109
lwrist 3.31513
lhand -27.0382 26.5222
lfingers 7.12502
lthumb -0.456951 56.5014
rfemur -8.77798 6.86821 30.7423
rtibia 27.2581
rfoot -10.9311 -3.78731
rtoes 7.15969
lfemur -15.1616 4.96106 -15.1654
ltibia 70.3486
lfoot 2.40668 -7.17286
ltoes -6.37854
207
root -0.239923 18.203 14.4221 -4.69459 -1.15403 -5.01894
lowerback 10.9825 -0.146316 3.50533
upperback -0.0890769 0.430242 2.73555
thorax -6.26407 0.145532 0.830237
lowerneck -17.495 -3.38219 -1.56268
upperneck 21.5072 -4.62286 1.33379
head 9.78059 -2.11832 0.101213
rclavicle -1.83643e-014 -7.95139e-015
rhumerus -29.4151 -25.2392 -76.255
rradius 20.3703
rwrist 9.50911
rhand -16.1089 19.926
rfingers 7.12502
rthumb 10.0951 -9.81184
lclavicle -1.83643e-014 -7.95139e-015
lhumerus -30.4118 4.64685 83.4436
lradius 27.148
lwrist 3.57185
lhand -26.9799 26.4915
lfingers 7.12502
lthumb -0.400697 56.4708
rfemur -8.33313 7.01689 30.9877
rtibia 27.3769
rfoot -11.3314 -4.01295
rtoes 7.27771
lfemur -16.3566 5.13123 -15.0319
ltibia 70.1828
lfoot 1.20082 -6.45727
ltoes -4.55708
208
root -0.23134 18.2061 14.5829 -4.59829 -1.16845 -4.91362
lowerback 10.7949 -0.120507 3.5758
upperback 0.0274624 0.450782 2.62709
thorax -6.03292 0.15499 0.671394
lowerneck -17.7208 -3.29717 -1.46104
upperneck 21.5136 -4.53701 1.36438
head 9.82181 -2.06433 0.102937
rclavicle 1.59105e-014 -1.15295e-014
rhumerus -28.4733 -24.7328 -76.8035
rradius 20.3733
rwrist 9.81139
rhand -16.871 21.5291
rfingers 7.12502
rthumb 9.35982 -8.24307
lclavicle 1.59105e-014 -1.15295e-014
lhumerus -30.4526 4.78661 83.3463
lradius 26.9414
lwrist 4.00283
lhand -26.6281 25.5435
lfingers 7.12502
lthumb -0.0609321 55.5232
rfemur -7.85571 6.74817 30.8745
rtibia 27.4575
rfoot -11.7306 -3.99315
rtoes 7.7698
lfemur -17.4758 5.05787 -15.2893
ltibia 69.8107
lfoot -0.349547 -5.66761
ltoes -4.80355
209
root -0.220172 18.1931 14.7241 -4.37799 -1.31627 -4.92478
lowerback 10.7752 -0.0108573 3.7566
upperback 0.0886277 0.612532 2.58238
thorax -5.95258 0.229747 0.496848
lowerneck -18.1309 -3.31041 -1.42069
upperneck 21.6427 -4.54744 1.29599
head 9.94139 -2.06884 0.0629568
rclavicle -1.45051e-015 3.18055e-015
rhumerus -27.6871 -23.5922 -77.5097
rradius 20.9823
rwrist 8.8772
rhand -16.8527 21.6231
rfingers 7.12502
rthumb 9.3775 -8.14835
lclavicle -1.45051e-015 3.18055e-015
lhumerus -30.4787 4.80397 83.3958
lradius 26.7734
lwrist 4.49847
lhand -26.6335 24.2083
lfingers 7.12502
lthumb -0.0661002 54.1881
rfemur -7.66062 6.70677 30.8877
rtibia 27.5745
rfoot -12.2222 -3.83267
rtoes 7.80838
lfemur -18.7996 5.12389 -15.4192
ltibia 69.3011
lfoot -1.7089 -5.00627
ltoes -5.62504
210
root -0.208858 18.1916 14.8773 -4.2214 -1.57722 -5.06024
lowerback 10.9257 0.127473 4.07879
upperback -0.0625559 0.850959 2.54694
thorax -6.18851 0.331995 0.241598
lowerneck -17.8043 -3.3519 -1.43269
upperneck 21.5761 -4.5888 1.23447
head 9.85604 -2.09964 0.0440067
rclavicle -1.06645e-014 1.98785e-014
rhumerus -27.4111 -22.1092 -78.1202
rradius 21.742
rwrist 7.39522
rhand -16.8082 20.823
rfingers 7.12502
rthumb 9.42043 -8.94645
lclavicle -1.06645e-014 1.98785e-014
lhumerus -31.0837 4.70856 83.4013
lradius 26.5548
lwrist 5.2195
lhand -26.7963 22.9459
lfingers 7.12502
lthumb -0.223393 52.9255
rfemur -7.39095 6.66995 31.0282
rtibia 27.7401
rfoot -12.9128 -3.58904
rtoes 7.75695
lfemur -20.0111 5.1641 -15.3984
ltibia 68.5734
lfoot -2.51405 -4.44893
ltoes -5.16403
211
root -0.203176 18.1938 15.0369 -4.14554 -1.83814 -5.0794
lowerback 11.0312 0.221708 4.14735
upperback -0.145383 0.99437 2.52888
thorax -6.33108 0.396857 0.160914
lowerneck -17.391 -3.35399 -1.66703
upperneck 21.4632 -4.58133 1.45017
head 9.75085 -2.09479 0.166728
rclavicle 1.22237e-014 -1.15295e-014
rhumerus -26.9844 -20.6696 -78.7277
rradius 22.2816
rwrist 6.50261
rhand -17.0317 20.8852
rfingers 7.12502
rthumb 9.20479 -8.89387
lclavicle 1.22237e-014 -1.15295e-014
lhumerus -31.7844 4.62907 83.3914
lradius 26.6239
lwrist 6.19342
lhand -26.6542 21.8788
lfingers 7.12502
lthumb -0.0860892 51.8585
rfemur -6.95876 6.72358 31.083
rtibia 27.875
rfoot -13.4503 -3.52333
rtoes 7.25215
lfemur -21.2062 5.11227 -15.4565
ltibia 67.5796
lfoot -2.76861 -3.97057
ltoes -4.19242
212
root -0.198625 18.173 15.1857 -3.99691 -2.10951 -5.45984
lowerback 11.0245 0.309859 4.59171
upperback -0.10748 1.16948 2.57685
thorax -6.27566 0.470554 -0.0661227
lowerneck -17.2775 -3.38245 -1.62881
upperneck 21.336 -4.63325 1.46447
head 9.68509 -2.11604 0.161363
rclavicle -1.97946e-014 1.78906e-014
rhumerus -26.3739 -19.5587 -79.3039
rradius 22.8772
rwrist 5.80309
rhand -17.1921 21.3356
rfingers 7.12502
rthumb 9.05002 -8.45027
lclavicle -1.97946e-014 1.78906e-014
lhumerus -32.0195 4.81554 83.2177
lradius 26.7461
lwrist 6.27349
lhand -26.1666 22.7826
lfingers 7.12502
lthumb 0.384821 52.762
rfemur -6.58759 6.84066 31.5665
rtibia 27.9838
rfoot -13.9017 -3.55354
rtoes 6.46943
lfemur -22.2211 5.13905 -15.066
ltibia 66.6254
lfoot -3.71829 -3.31309
ltoes -5.97273
213
root -0.191478 18.1576 15.3414 -3.92905 -2.30902 -5.7433
lowerback 11.0149 0.378204 4.90025
upperback 0.0211372 1.29782 2.66357
thorax -6.12543 0.529415 -0.16835
lowerneck -17.5548 -3.34189 -1.45549
upperneck 21.2628 -4.57803 1.2983
head 9.7008 -2.0936 0.0785731
rclavicle -4.01607e-015 2.10712e-014
rhumerus -25.6084 -18.5088 -79.7976
rradius 23.4334
rwrist 5.05282
rhand -17.3098 21.4674
rfingers 7.12502
rthumb 8.93643 -8.32333
lclavicle -4.01607e-015 2.10712e-014
lhumerus -32.006 5.23244 83.1607
lradius 26.652
lwrist 6.11048
lhand -25.6333 24.3273
lfingers 7.12502
lthumb 0.899909 54.3051
rfemur -6.0729 6.73021 31.9005
rtibia 28.0149
rfoot -14.3399 -3.48197
rtoes 6.60361
lfemur -23.0684 4.99442 -14.7777
ltibia 65.4494
lfoot -4.63243 -2.62661
ltoes -6.72288
214
root -0.184694 18.1362 15.4949 -3.86453 -2.46283 -6.08526
lowerback 11.1394 0.42627 5.29617
upperback 0.0925226 1.42072 2.7118
thorax -6.10801 0.579519 -0.36012
lowerneck -17.9596 -3.29227 -1.30635
upperneck 21.4186 -4.53155 1.22366
head 9.82465 -2.06356 0.0261302
rclavicle -1.26725e-015 -3.08116e-014
rhumerus -25.0097 -17.6056 -80.2861
rradius 24.0432
rwrist 4.58639
rhand -17.5673 20.943
rfingers 7.12502
rthumb 8.68788 -8.85822
lclavicle -1.26725e-015 -3.08116e-014
lhumerus -32.0821 5.40403 83.0876
lradius 26.402
lwrist 6.39675
lhand -25.8597 23.4148
lfingers 7.12502
lthumb 0.681268 53.3935
rfemur -5.65079 6.43807 32.2727
rtibia 28.1044
rfoot -14.7587 -3.31553
rtoes 7.72389
lfemur -23.8946 4.87467 -14.4115
ltibia 64.2575
lfoot -5.56675 -2.00336
ltoes -8.31019
